<?xml version="1.0" standalone="yes"?>
<svg width="300" height="300">
<path style="fill:#ffffff; stroke:none;" d="M0 0L0 300L300 300L300 0L0 0z"/>
<path style="fill:#0d0207; stroke:none;" d="M51 54L51 55L58 55L51 54M258 54L258 55L265 55L258 54z"/>
<path style="fill:#260716; stroke:none;" d="M32 55L32 56L39 56L32 55z"/>
<path style="fill:#a22361; stroke:none;" d="M39 55L39 56L47 56L39 55z"/>
<path style="fill:#d12d7d; stroke:none;" d="M31 56L31 57C62.6143 81.0876 91.0591 112.564 119.985 139.91C127.902 147.395 136.009 154.685 144.015 162.076C147.473 165.268 152.151 170.385 157 171.303C161.106 172.081 165.06 168.103 168 165.789C175.821 159.635 182.546 152.289 190 145.715C207.42 130.35 223.775 113.755 241 98.1698C255.721 84.8504 272.532 71.4629 285 56C272.792 56 259.973 53.4738 248 56.5147C236.422 59.4553 226.394 67.9933 217.17 75.1389C203.45 85.7671 189.244 95.5089 175 105.414C170.305 108.678 164.049 115.424 158 115.443C151.77 115.463 143.883 107.336 139 103.859C123.481 92.8073 108.169 81.7639 93 70.2353C72.1964 54.424 55.6121 56 31 56z"/>
<path style="fill:#6a1740; stroke:none;" d="M62 55L62 56L65 56L62 55z"/>
<path style="fill:#030001; stroke:none;" d="M65.6667 55.3333L66.3333 55.6667L65.6667 55.3333z"/>
<path style="fill:#6a1740; stroke:none;" d="M249 55L249 56L254 56L249 55z"/>
<path style="fill:#962059; stroke:none;" d="M267 55L267 56L273 56L267 55z"/>
<path style="fill:#1b0510; stroke:none;" d="M273 55L273 56L284 56L273 55z"/>
<path style="fill:#18040e; stroke:none;" d="M68.6667 56.3333L69.3333 56.6667L68.6667 56.3333z"/>
<path style="fill:#5d1336; stroke:none;" d="M246.667 56.3333L247.333 56.6667L246.667 56.3333z"/>
<path style="fill:#070104; stroke:none;" d="M71.6667 57.3333L72.3333 57.6667L71.6667 57.3333z"/>
<path style="fill:#4c102d; stroke:none;" d="M243.667 57.3333L244.333 57.6667L243.667 57.3333z"/>
<path style="fill:#4a0f2c; stroke:none;" d="M33 58L34 59L33 58z"/>
<path style="fill:#15040c; stroke:none;" d="M74 58L75 59L74 58z"/>
<path style="fill:#68173f; stroke:none;" d="M241.667 58.3333L242.333 58.6667L241.667 58.3333z"/>
<path style="fill:#450e29; stroke:none;" d="M34 59L35 60L34 59z"/>
<path style="fill:#13030b; stroke:none;" d="M76 59L77 60L76 59z"/>
<path style="fill:#771a48; stroke:none;" d="M239.667 59.3333L240.333 59.6667L239.667 59.3333z"/>
<path style="fill:#4e102e; stroke:none;" d="M281 59L282 60L281 59z"/>
<path style="fill:#3c0c24; stroke:none;" d="M35 60L36 61L35 60z"/>
<path style="fill:#0f0208; stroke:none;" d="M78 60L79 61L78 60z"/>
<path style="fill:#711744; stroke:none;" d="M237.667 60.3333L238.333 60.6667L237.667 60.3333z"/>
<path style="fill:#470f2a; stroke:none;" d="M280 60L281 61L280 60z"/>
<path style="fill:#320a1d; stroke:none;" d="M36 61L37 62L36 61z"/>
<path style="fill:#040002; stroke:none;" d="M79.6667 61.3333L80.3333 61.6667L79.6667 61.3333z"/>
<path style="fill:#4c102d; stroke:none;" d="M235.667 61.3333L236.333 61.6667L235.667 61.3333z"/>
<path style="fill:#420d27; stroke:none;" d="M279 61L280 62L279 61z"/>
<path style="fill:#2d091a; stroke:none;" d="M37 62L38 63L37 62z"/>
<path style="fill:#320a1d; stroke:none;" d="M81 62L82 63L81 62z"/>
<path style="fill:#3b0c23; stroke:none;" d="M278 62L279 63L278 62z"/>
<path style="fill:#220714; stroke:none;" d="M38 63L39 64L38 63z"/>
<path style="fill:#0a0105; stroke:none;" d="M83 63L84 64L83 63z"/>
<path style="fill:#6e1843; stroke:none;" d="M232.667 63.3333L233.333 63.6667L232.667 63.3333z"/>
<path style="fill:#370b20; stroke:none;" d="M277 63L278 64L277 63z"/>
<path style="fill:#1f0612; stroke:none;" d="M39 64L40 65L39 64z"/>
<path style="fill:#3f0d25; stroke:none;" d="M84 64L85 65L84 64z"/>
<path style="fill:#320a1d; stroke:none;" d="M231 64L232 65L231 64z"/>
<path style="fill:#2f091b; stroke:none;" d="M276 64L277 65L276 64z"/>
<path style="fill:#18040e; stroke:none;" d="M40 65L41 66L40 65z"/>
<path style="fill:#0f0208; stroke:none;" d="M86 65L87 66L86 65z"/>
<path style="fill:#7c1b4b; stroke:none;" d="M229.667 65.3333L230.333 65.6667L229.667 65.3333z"/>
<path style="fill:#2c091a; stroke:none;" d="M275 65L276 66L275 65z"/>
<path style="fill:#14040c; stroke:none;" d="M41 66L42 67L41 66z"/>
<path style="fill:#3d0c24; stroke:none;" d="M87 66L88 67L87 66z"/>
<path style="fill:#3c0c23; stroke:none;" d="M228 66L229 67L228 66z"/>
<path style="fill:#260716; stroke:none;" d="M274 66L275 67L274 66z"/>
<path style="fill:#0d0207; stroke:none;" d="M42 67L43 68L42 67z"/>
<path style="fill:#060103; stroke:none;" d="M89 67L90 68L89 67z"/>
<path style="fill:#68173f; stroke:none;" d="M226.667 67.3333L227.333 67.6667L226.667 67.3333z"/>
<path style="fill:#230715; stroke:none;" d="M273 67L274 68L273 67z"/>
<path style="fill:#0b0206; stroke:none;" d="M43 68L44 69L43 68z"/>
<path style="fill:#230715; stroke:none;" d="M90 68L91 69L90 68z"/>
<path style="fill:#19050f; stroke:none;" d="M225 68L226 69L225 68z"/>
<path style="fill:#1d0511; stroke:none;" d="M272 68L273 69L272 68z"/>
<path style="fill:#070104; stroke:none;" d="M44 69L45 70L44 69z"/>
<path style="fill:#450e29; stroke:none;" d="M224 69L225 70L224 69z"/>
<path style="fill:#1b0510; stroke:none;" d="M271 69L272 70L271 69z"/>
<path style="fill:#050002; stroke:none;" d="M45 70L46 71L45 70z"/>
<path style="fill:#0a0105; stroke:none;" d="M93 70L94 71L93 70z"/>
<path style="fill:#841b4f; stroke:none;" d="M222.667 70.3333L223.333 70.6667L222.667 70.3333z"/>
<path style="fill:#14040c; stroke:none;" d="M270 70L271 71L270 70z"/>
<path style="fill:#010000; stroke:none;" d="M46 71L47 72L46 71z"/>
<path style="fill:#230715; stroke:none;" d="M94 71L95 72L94 71z"/>
<path style="fill:#1e0612; stroke:none;" d="M221 71L222 72L221 71z"/>
<path style="fill:#13030b; stroke:none;" d="M269 71L270 72L269 71z"/>
<path style="fill:#721945; stroke:none;" d="M47 72L50 74L47 72z"/>
<path style="fill:#450e29; stroke:none;" d="M95 72L96 73L95 72z"/>
<path style="fill:#3f0d25; stroke:none;" d="M220 72L221 73L220 72z"/>
<path style="fill:#0f0309; stroke:none;" d="M268 72L269 73L268 72z"/>
<path style="fill:#030001; stroke:none;" d="M97 73L98 74L97 73z"/>
<path style="fill:#68173f; stroke:none;" d="M218 73L218 75L220 73L218 73z"/>
<path style="fill:#0b0206; stroke:none;" d="M267 73L268 74L267 73z"/>
<path style="fill:#13030b; stroke:none;" d="M98 74L99 75L98 74z"/>
<path style="fill:#0f0309; stroke:none;" d="M217 74L218 75L217 74z"/>
<path style="fill:#0a0105; stroke:none;" d="M266 74L267 75L266 74z"/>
<path style="fill:#2e091b; stroke:none;" d="M99 75L100 76L99 75z"/>
<path style="fill:#290818; stroke:none;" d="M216 75L217 76L216 75z"/>
<path style="fill:#060103; stroke:none;" d="M265 75L266 76L265 75z"/>
<path style="fill:#531131; stroke:none;" d="M52 76L53 77L52 76z"/>
<path style="fill:#060003; stroke:none;" d="M264 76L265 77L264 76z"/>
<path style="fill:#480f2b; stroke:none;" d="M53 77L54 78L53 77z"/>
<path style="fill:#070104; stroke:none;" d="M102 77L103 78L102 77z"/>
<path style="fill:#7f1a4c; stroke:none;" d="M213 77L213 79L215 77L213 77z"/>
<path style="fill:#030001; stroke:none;" d="M263 77L264 78L263 77z"/>
<path style="fill:#3e0d25; stroke:none;" d="M54 78L55 79L54 78z"/>
<path style="fill:#1b0510; stroke:none;" d="M103 78L104 79L103 78z"/>
<path style="fill:#17040d; stroke:none;" d="M212 78L213 79L212 78z"/>
<path style="fill:#020001; stroke:none;" d="M262 78L263 79L262 78z"/>
<path style="fill:#340a1f; stroke:none;" d="M55 79L56 80L55 79z"/>
<path style="fill:#400d26; stroke:none;" d="M104 79L105 80L104 79z"/>
<path style="fill:#3b0c23; stroke:none;" d="M211 79L212 80L211 79z"/>
<path style="fill:#010000; stroke:none;" d="M261 79L262 80L261 79z"/>
<path style="fill:#320a1d; stroke:none;" d="M56 80L57 81L56 80z"/>
<path style="fill:#010000; stroke:none;" d="M105.667 80.3333L106.333 80.6667L105.667 80.3333z"/>
<path style="fill:#68153d; stroke:none;" d="M209 80L209 82L211 80L209 80z"/>
<path style="fill:#000000; stroke:none;" d="M260 80L261 81L260 80z"/>
<path style="fill:#2a0819; stroke:none;" d="M57 81L58 82L57 81z"/>
<path style="fill:#0e0208; stroke:none;" d="M107 81L108 82L107 81z"/>
<path style="fill:#0f0208; stroke:none;" d="M208 81L209 82L208 81z"/>
<path style="fill:#210613; stroke:none;" d="M58 82L59 83L58 82z"/>
<path style="fill:#2c091a; stroke:none;" d="M108 82L109 83L108 82z"/>
<path style="fill:#280818; stroke:none;" d="M207 82L208 83L207 82z"/>
<path style="fill:#1a050f; stroke:none;" d="M59 83L60 84L59 83z"/>
<path style="fill:#4c102d; stroke:none;" d="M206 83L207 84L206 83z"/>
<path style="fill:#4f102f; stroke:none;" d="M256 83L257 84L256 83z"/>
<path style="fill:#18040e; stroke:none;" d="M60 84L61 85L60 84z"/>
<path style="fill:#090105; stroke:none;" d="M111 84L112 85L111 84z"/>
<path style="fill:#841d4e; stroke:none;" d="M204.667 84.3333L205.333 84.6667L204.667 84.3333z"/>
<path style="fill:#3e0d25; stroke:none;" d="M255 84L256 85L255 84z"/>
<path style="fill:#12030a; stroke:none;" d="M61 85L62 86L61 85z"/>
<path style="fill:#2e091b; stroke:none;" d="M112 85L113 86L112 85z"/>
<path style="fill:#2a0818; stroke:none;" d="M203 85L204 86L203 85z"/>
<path style="fill:#370b20; stroke:none;" d="M254 85L255 86L254 85z"/>
<path style="fill:#0d0207; stroke:none;" d="M62 86L63 87L62 86z"/>
<path style="fill:#010000; stroke:none;" d="M113.667 86.3333L114.333 86.6667L113.667 86.3333z"/>
<path style="fill:#11030a; stroke:none;" d="M200 88L203 86L200 88z"/>
<path style="fill:#2c091a; stroke:none;" d="M253 86L254 87L253 86z"/>
<path style="fill:#080104; stroke:none;" d="M63 87L64 88L63 87z"/>
<path style="fill:#15040c; stroke:none;" d="M115 87L116 88L115 87z"/>
<path style="fill:#1f0612; stroke:none;" d="M252 87L253 88L252 87z"/>
<path style="fill:#070104; stroke:none;" d="M64 88L65 89L64 88z"/>
<path style="fill:#410d26; stroke:none;" d="M116 88L117 89L116 88M199 88L200 89L199 88z"/>
<path style="fill:#17040d; stroke:none;" d="M251 88L252 89L251 88z"/>
<path style="fill:#040002; stroke:none;" d="M65 89L66 90L65 89z"/>
<path style="fill:#0d0207; stroke:none;" d="M118 89L119 90L118 89z"/>
<path style="fill:#7c1b4b; stroke:none;" d="M197.667 89.3333L198.333 89.6667L197.667 89.3333z"/>
<path style="fill:#100309; stroke:none;" d="M250 89L251 90L250 89z"/>
<path style="fill:#020001; stroke:none;" d="M66 90L67 91L66 90z"/>
<path style="fill:#330a1e; stroke:none;" d="M119 90L120 91L119 90z"/>
<path style="fill:#360b20; stroke:none;" d="M196 90L197 91L196 90z"/>
<path style="fill:#0a0105; stroke:none;" d="M249 90L250 91L249 90z"/>
<path style="fill:#721945; stroke:none;" d="M67.6667 91.3333L68.3333 91.6667L67.6667 91.3333z"/>
<path style="fill:#070104; stroke:none;" d="M121 91L122 92L121 91z"/>
<path style="fill:#6e1843; stroke:none;" d="M194.667 91.3333L195.333 91.6667L194.667 91.3333z"/>
<path style="fill:#060103; stroke:none;" d="M248 91L249 92L248 91z"/>
<path style="fill:#290818; stroke:none;" d="M122 92L123 93L122 92z"/>
<path style="fill:#2b0919; stroke:none;" d="M193 92L194 93L193 92z"/>
<path style="fill:#020001; stroke:none;" d="M247 92L248 93L247 92z"/>
<path style="fill:#030001; stroke:none;" d="M124 93L125 94L124 93z"/>
<path style="fill:#611439; stroke:none;" d="M191.667 93.3333L192.333 93.6667L191.667 93.3333z"/>
<path style="fill:#010000; stroke:none;" d="M246 93L247 94L246 93z"/>
<path style="fill:#480f2b; stroke:none;" d="M71 94L72 95L71 94z"/>
<path style="fill:#1f0612; stroke:none;" d="M125 94L126 95L125 94z"/>
<path style="fill:#210614; stroke:none;" d="M190 94L191 95L190 94z"/>
<path style="fill:#3c0c24; stroke:none;" d="M72 95L73 96L72 95z"/>
<path style="fill:#010000; stroke:none;" d="M126.667 95.3333L127.333 95.6667L126.667 95.3333z"/>
<path style="fill:#5a1335; stroke:none;" d="M188.667 95.3333L189.333 95.6667L188.667 95.3333z"/>
<path style="fill:#310a1d; stroke:none;" d="M73 96L74 97L73 96z"/>
<path style="fill:#16040d; stroke:none;" d="M128 96L129 97L128 96z"/>
<path style="fill:#19050f; stroke:none;" d="M187 96L188 97L187 96z"/>
<path style="fill:#4d112e; stroke:none;" d="M242 96L243 97L242 96z"/>
<path style="fill:#230715; stroke:none;" d="M74 97L75 98L74 97z"/>
<path style="fill:#531131; stroke:none;" d="M129 97L130 98L129 97z"/>
<path style="fill:#3b0c23; stroke:none;" d="M241 97L242 98L241 97z"/>
<path style="fill:#1e0612; stroke:none;" d="M75 98L76 99L75 98z"/>
<path style="fill:#0e0208; stroke:none;" d="M131 98L132 99L131 98z"/>
<path style="fill:#13030b; stroke:none;" d="M184 98L185 99L184 98z"/>
<path style="fill:#2f091c; stroke:none;" d="M240 98L241 99L240 98z"/>
<path style="fill:#13030b; stroke:none;" d="M76 99L77 100L76 99z"/>
<path style="fill:#3e0d25; stroke:none;" d="M132 99L133 100L132 99z"/>
<path style="fill:#410d27; stroke:none;" d="M183 99L184 100L183 99z"/>
<path style="fill:#260717; stroke:none;" d="M239 99L240 100L239 99z"/>
<path style="fill:#0e0208; stroke:none;" d="M77 100L78 101L77 100z"/>
<path style="fill:#090105; stroke:none;" d="M134 100L135 101L134 100z"/>
<path style="fill:#7c1b4b; stroke:none;" d="M181.667 100.333L182.333 100.667L181.667 100.333z"/>
<path style="fill:#1d0611; stroke:none;" d="M238 100L239 101L238 100z"/>
<path style="fill:#090105; stroke:none;" d="M78 101L79 102L78 101z"/>
<path style="fill:#320a1d; stroke:none;" d="M135 101L136 102L135 101z"/>
<path style="fill:#2d091a; stroke:none;" d="M180 101L181 102L180 101z"/>
<path style="fill:#16040d; stroke:none;" d="M237 101L238 102L237 101z"/>
<path style="fill:#050002; stroke:none;" d="M79 102L80 103L79 102M137 102L138 103L137 102z"/>
<path style="fill:#68173f; stroke:none;" d="M178.667 102.333L179.333 102.667L178.667 102.333z"/>
<path style="fill:#0f0309; stroke:none;" d="M236 102L237 103L236 102z"/>
<path style="fill:#010000; stroke:none;" d="M80 103L81 104L80 103z"/>
<path style="fill:#260717; stroke:none;" d="M138 103L139 104L138 103z"/>
<path style="fill:#200613; stroke:none;" d="M177 103L178 104L177 103z"/>
<path style="fill:#0a0105; stroke:none;" d="M235 103L236 104L235 103z"/>
<path style="fill:#721945; stroke:none;" d="M81.6667 104.333L82.3333 104.667L81.6667 104.333z"/>
<path style="fill:#010000; stroke:none;" d="M139.667 104.333L140.333 104.667L139.667 104.333z"/>
<path style="fill:#531131; stroke:none;" d="M175.667 104.333L176.333 104.667L175.667 104.333z"/>
<path style="fill:#060003; stroke:none;" d="M234 104L235 105L234 104z"/>
<path style="fill:#1d0511; stroke:none;" d="M141 105L142 106L141 105z"/>
<path style="fill:#12030a; stroke:none;" d="M174 105L175 106L174 105z"/>
<path style="fill:#020001; stroke:none;" d="M233 105L234 106L233 105z"/>
<path style="fill:#000000; stroke:none;" d="M142.667 106.333L143.333 106.667L142.667 106.333z"/>
<path style="fill:#420d27; stroke:none;" d="M173 106L174 107L173 106z"/>
<path style="fill:#000000; stroke:none;" d="M232 106L233 107L232 106z"/>
<path style="fill:#490f2b; stroke:none;" d="M85 107L86 108L85 107z"/>
<path style="fill:#14040c; stroke:none;" d="M144 107L145 108L144 107z"/>
<path style="fill:#7c1b4b; stroke:none;" d="M171.667 107.333L172.333 107.667L171.667 107.333z"/>
<path style="fill:#3d0c24; stroke:none;" d="M86 108L87 109L86 108z"/>
<path style="fill:#420d27; stroke:none;" d="M145 108L146 109L145 108z"/>
<path style="fill:#2b0919; stroke:none;" d="M170 108L171 109L170 108z"/>
<path style="fill:#531131; stroke:none;" d="M229 108L230 109L229 108z"/>
<path style="fill:#320a1d; stroke:none;" d="M87 109L88 110L87 109z"/>
<path style="fill:#060103; stroke:none;" d="M147 109L148 110L147 109z"/>
<path style="fill:#450e29; stroke:none;" d="M228 109L229 110L228 109z"/>
<path style="fill:#280818; stroke:none;" d="M88 110L89 111L88 110z"/>
<path style="fill:#19050f; stroke:none;" d="M148 110L149 111L148 110z"/>
<path style="fill:#090105; stroke:none;" d="M167 110L168 111L167 110z"/>
<path style="fill:#380b21; stroke:none;" d="M227 110L228 111L227 110z"/>
<path style="fill:#1b0510; stroke:none;" d="M89 111L90 112L89 111z"/>
<path style="fill:#420d27; stroke:none;" d="M149 111L150 112L149 111z"/>
<path style="fill:#1f0612; stroke:none;" d="M166 111L167 112L166 111z"/>
<path style="fill:#2f091b; stroke:none;" d="M226 111L227 112L226 111z"/>
<path style="fill:#13030b; stroke:none;" d="M90 112L91 113L90 112z"/>
<path style="fill:#020001; stroke:none;" d="M151 112L152 113L151 112z"/>
<path style="fill:#490f2b; stroke:none;" d="M165 112L166 113L165 112z"/>
<path style="fill:#250716; stroke:none;" d="M225 112L226 113L225 112z"/>
<path style="fill:#100309; stroke:none;" d="M91 113L92 114L91 113z"/>
<path style="fill:#1a050f; stroke:none;" d="M152 113L153 114L152 113z"/>
<path style="fill:#841d4e; stroke:none;" d="M163.667 113.333L164.333 113.667L163.667 113.333z"/>
<path style="fill:#1a050f; stroke:none;" d="M224 113L225 114L224 113z"/>
<path style="fill:#0a0106; stroke:none;" d="M92 114L93 115L92 114z"/>
<path style="fill:#070104; stroke:none;" d="M153.667 114.333L154.333 114.667L153.667 114.333z"/>
<path style="fill:#581233; stroke:none;" d="M161.667 114.333L162.333 114.667L161.667 114.333z"/>
<path style="fill:#13030b; stroke:none;" d="M223 114L224 115L223 114z"/>
<path style="fill:#060003; stroke:none;" d="M93 115L94 116L93 115z"/>
<path style="fill:#11030a; stroke:none;" d="M155 115L155 116L160 116L155 115z"/>
<path style="fill:#0c0207; stroke:none;" d="M222 115L223 116L222 115z"/>
<path style="fill:#010000; stroke:none;" d="M94 116L95 117L94 116z"/>
<path style="fill:#090105; stroke:none;" d="M221 116L222 117L221 116z"/>
<path style="fill:#721945; stroke:none;" d="M95.6667 117.333L96.3333 117.667L95.6667 117.333z"/>
<path style="fill:#050002; stroke:none;" d="M220 117L221 118L220 117z"/>
<path style="fill:#010000; stroke:none;" d="M219 118L220 119L219 118z"/>
<path style="fill:#490f2b; stroke:none;" d="M99 120L100 121L99 120z"/>
<path style="fill:#3d0c24; stroke:none;" d="M100 121L101 122L100 121z"/>
<path style="fill:#511030; stroke:none;" d="M215 121L216 122L215 121z"/>
<path style="fill:#320a1d; stroke:none;" d="M101 122L102 123L101 122z"/>
<path style="fill:#440e28; stroke:none;" d="M214 122L215 123L214 122z"/>
<path style="fill:#280818; stroke:none;" d="M102 123L103 124L102 123z"/>
<path style="fill:#380b21; stroke:none;" d="M213 123L214 124L213 123z"/>
<path style="fill:#1f0612; stroke:none;" d="M103 124L104 125L103 124z"/>
<path style="fill:#2d091a; stroke:none;" d="M212 124L213 125L212 124z"/>
<path style="fill:#14040c; stroke:none;" d="M104 125L105 126L104 125z"/>
<path style="fill:#240715; stroke:none;" d="M211 125L212 126L211 125z"/>
<path style="fill:#0e0208; stroke:none;" d="M105 126L106 127L105 126z"/>
<path style="fill:#1c0510; stroke:none;" d="M210 126L211 127L210 126z"/>
<path style="fill:#090105; stroke:none;" d="M106 127L107 128L106 127z"/>
<path style="fill:#11030a; stroke:none;" d="M209 127L210 128L209 127z"/>
<path style="fill:#050002; stroke:none;" d="M107 128L108 129L107 128z"/>
<path style="fill:#0b0206; stroke:none;" d="M208 128L209 129L208 128z"/>
<path style="fill:#010000; stroke:none;" d="M108 129L109 130L108 129z"/>
<path style="fill:#060103; stroke:none;" d="M207 129L208 130L207 129z"/>
<path style="fill:#741845; stroke:none;" d="M109.667 130.333L110.333 130.667L109.667 130.333z"/>
<path style="fill:#030001; stroke:none;" d="M206 130L207 131L206 130z"/>
<path style="fill:#010000; stroke:none;" d="M205 131L206 132L205 131z"/>
<path style="fill:#490f2b; stroke:none;" d="M113 133L114 134L113 133z"/>
<path style="fill:#3d0c24; stroke:none;" d="M114 134L115 135L114 134z"/>
<path style="fill:#4f102f; stroke:none;" d="M201 134L202 135L201 134z"/>
<path style="fill:#320a1d; stroke:none;" d="M115 135L116 136L115 135z"/>
<path style="fill:#420d27; stroke:none;" d="M200 135L201 136L200 135z"/>
<path style="fill:#280818; stroke:none;" d="M116 136L117 137L116 136z"/>
<path style="fill:#370b20; stroke:none;" d="M199 136L200 137L199 136z"/>
<path style="fill:#200613; stroke:none;" d="M117 137L118 138L117 137z"/>
<path style="fill:#270817; stroke:none;" d="M198 137L199 138L198 137z"/>
<path style="fill:#14040c; stroke:none;" d="M118 138L119 139L118 138z"/>
<path style="fill:#1f0612; stroke:none;" d="M197 138L198 139L197 138z"/>
<path style="fill:#0e0208; stroke:none;" d="M119 139L120 140L119 139z"/>
<path style="fill:#17040d; stroke:none;" d="M196 139L197 140L196 139z"/>
<path style="fill:#090105; stroke:none;" d="M120 140L121 141L120 140z"/>
<path style="fill:#100309; stroke:none;" d="M195 140L196 141L195 140z"/>
<path style="fill:#050002; stroke:none;" d="M121 141L122 142L121 141z"/>
<path style="fill:#0a0106; stroke:none;" d="M194 141L195 142L194 141z"/>
<path style="fill:#070205; stroke:none;" d="M51 142L51 143L58 143L51 142z"/>
<path style="fill:#010000; stroke:none;" d="M122 142L123 143L122 142z"/>
<path style="fill:#060103; stroke:none;" d="M193 142L194 143L193 142z"/>
<path style="fill:#070205; stroke:none;" d="M258 142L258 143L265 143L258 142z"/>
<path style="fill:#16070f; stroke:none;" d="M32 143L32 144L40 144L32 143z"/>
<path style="fill:#7b2a55; stroke:none;" d="M31 144L49.9853 162.001L121.91 229.019L147 253.536L158 259.711L169 253.246L192 232.039L249 179.17L285 144C272.377 144 259.481 141.477 247 144.455C235.28 147.252 225.356 155.746 216 162.884C202.257 173.369 188.221 183.206 174 193.025C169.767 195.948 163.429 202.98 158 202.98C152.261 202.98 144.279 195.037 139.83 191.706C127.051 182.137 113.689 173.408 101 163.651C89.8565 155.082 78.269 145.703 64 143.326C53.1336 141.515 41.8686 143.97 31 144z"/>
<path style="fill:#010001; stroke:none;" d="M65.6667 143.333L66.3333 143.667L65.6667 143.333z"/>
<path style="fill:#741845; stroke:none;" d="M123.667 143.333L124.333 143.667L123.667 143.333z"/>
<path style="fill:#020001; stroke:none;" d="M192 143L193 144L192 143z"/>
<path style="fill:#3f162c; stroke:none;" d="M249 143L249 144L254 144L249 143z"/>
<path style="fill:#0f050a; stroke:none;" d="M270 143L270 144L284 144L270 143z"/>
<path style="fill:#0d0409; stroke:none;" d="M68.6667 144.333L69.3333 144.667L68.6667 144.333z"/>
<path style="fill:#000000; stroke:none;" d="M191 144L192 145L191 144z"/>
<path style="fill:#030002; stroke:none;" d="M71.6667 145.333L72.3333 145.667L71.6667 145.333z"/>
<path style="fill:#2c0e1e; stroke:none;" d="M243.667 145.333L244.333 145.667L243.667 145.333z"/>
<path style="fill:#490f2b; stroke:none;" d="M127 146L128 147L127 146z"/>
<path style="fill:#3d0c24; stroke:none;" d="M128 147L129 148L128 147z"/>
<path style="fill:#511130; stroke:none;" d="M187 147L188 148L187 147z"/>
<path style="fill:#320a1d; stroke:none;" d="M129 148L130 149L129 148z"/>
<path style="fill:#450e29; stroke:none;" d="M186 148L187 149L186 148z"/>
<path style="fill:#280818; stroke:none;" d="M130 149L131 150L130 149z"/>
<path style="fill:#3b0c23; stroke:none;" d="M185 149L186 150L185 149z"/>
<path style="fill:#1b0510; stroke:none;" d="M131 150L132 151L131 150z"/>
<path style="fill:#350b1f; stroke:none;" d="M184 150L185 151L184 150z"/>
<path style="fill:#13030b; stroke:none;" d="M132 151L133 152L132 151z"/>
<path style="fill:#2c091a; stroke:none;" d="M183 151L184 152L183 151z"/>
<path style="fill:#0e0208; stroke:none;" d="M133 152L134 153L133 152z"/>
<path style="fill:#240715; stroke:none;" d="M182 152L183 153L182 152z"/>
<path style="fill:#080104; stroke:none;" d="M134 153L135 154L134 153z"/>
<path style="fill:#1c0510; stroke:none;" d="M181 153L182 154L181 153z"/>
<path style="fill:#040002; stroke:none;" d="M135 154L136 155L135 154z"/>
<path style="fill:#15040c; stroke:none;" d="M180 154L181 155L180 154z"/>
<path style="fill:#511c39; stroke:none;" d="M42 155L55 167L42 155z"/>
<path style="fill:#010000; stroke:none;" d="M136 155L137 156L136 155z"/>
<path style="fill:#0f0309; stroke:none;" d="M179 155L180 156L179 155z"/>
<path style="fill:#711744; stroke:none;" d="M137.667 156.333L138.333 156.667L137.667 156.333z"/>
<path style="fill:#0a0106; stroke:none;" d="M178 156L179 157L178 156z"/>
<path style="fill:#000000; stroke:none;" d="M91.6667 157.333L92.3333 157.667L91.6667 157.333z"/>
<path style="fill:#060103; stroke:none;" d="M177 157L178 158L177 157z"/>
<path style="fill:#030001; stroke:none;" d="M176 158L177 159L176 158z"/>
<path style="fill:#410d27; stroke:none;" d="M141 159L142 160L141 159z"/>
<path style="fill:#010000; stroke:none;" d="M175 159L176 160L175 159z"/>
<path style="fill:#350b1f; stroke:none;" d="M142 160L143 161L142 160z"/>
<path style="fill:#000000; stroke:none;" d="M174 160L175 161L174 160z"/>
<path style="fill:#2b0919; stroke:none;" d="M143 161L144 162L143 161z"/>
<path style="fill:#050103; stroke:none;" d="M267 161L268 162L267 161z"/>
<path style="fill:#220714; stroke:none;" d="M144 162L145 163L144 162z"/>
<path style="fill:#050103; stroke:none;" d="M266 162L267 163L266 162z"/>
<path style="fill:#1a050f; stroke:none;" d="M145 163L146 164L145 163z"/>
<path style="fill:#4f102f; stroke:none;" d="M170 163L171 164L170 163z"/>
<path style="fill:#030002; stroke:none;" d="M265 163L266 164L265 163z"/>
<path style="fill:#13030b; stroke:none;" d="M146 164L147 165L146 164z"/>
<path style="fill:#440e28; stroke:none;" d="M169 164L170 165L169 164z"/>
<path style="fill:#010001; stroke:none;" d="M264 164L265 165L264 164z"/>
<path style="fill:#0e0208; stroke:none;" d="M147 165L148 166L147 165z"/>
<path style="fill:#380b21; stroke:none;" d="M168 165L169 166L168 165z"/>
<path style="fill:#010000; stroke:none;" d="M263 165L264 166L263 165z"/>
<path style="fill:#080104; stroke:none;" d="M148 166L149 167L148 166z"/>
<path style="fill:#19050f; stroke:none;" d="M167 166L168 167L167 166z"/>
<path style="fill:#000000; stroke:none;" d="M262 166L263 167L262 166z"/>
<path style="fill:#450e29; stroke:none;" d="M150 167L151 168L150 167z"/>
<path style="fill:#010000; stroke:none;" d="M165.667 167.333L166.333 167.667L165.667 167.333z"/>
<path style="fill:#000000; stroke:none;" d="M261 167L262 168L261 167z"/>
<path style="fill:#19050f; stroke:none;" d="M151 168L152 169L151 168z"/>
<path style="fill:#2f091c; stroke:none;" d="M164 168L165 169L164 168z"/>
<path style="fill:#68173f; stroke:none;" d="M152.667 169.333L153.333 169.667L152.667 169.333z"/>
<path style="fill:#090105; stroke:none;" d="M163 169L164 170L163 169z"/>
<path style="fill:#350b1f; stroke:none;" d="M154 170L155 171L154 170z"/>
<path style="fill:#470f2a; stroke:none;" d="M161 170L162 171L161 170z"/>
<path style="fill:#0f0309; stroke:none;" d="M155 171L156 172L155 171z"/>
<path style="fill:#15040c; stroke:none;" d="M160 171L161 172L160 171z"/>
<path style="fill:#5a1235; stroke:none;" d="M156 172L156 173L160 173L156 172z"/>
<path style="fill:#521b37; stroke:none;" d="M62 174L70 181L62 174z"/>
<path style="fill:#060104; stroke:none;" d="M250 177L251 178L250 177z"/>
<path style="fill:#030002; stroke:none;" d="M249 178L250 179L249 178z"/>
<path style="fill:#010000; stroke:none;" d="M248 179L249 180L248 179z"/>
<path style="fill:#000000; stroke:none;" d="M247 180L248 181L247 180M126.667 183.333L127.333 183.667L126.667 183.333z"/>
<path style="fill:#050103; stroke:none;" d="M236 190L237 191L236 190z"/>
<path style="fill:#030002; stroke:none;" d="M235 191L236 192L235 191z"/>
<path style="fill:#010000; stroke:none;" d="M234 192L235 193L234 192z"/>
<path style="fill:#000000; stroke:none;" d="M233 193L234 194L233 193M142.667 194.333L143.333 194.667L142.667 194.333z"/>
<path style="fill:#11050c; stroke:none;" d="M156 203L156 204L160 204L156 203z"/>
<path style="fill:#040102; stroke:none;" d="M222 203L223 204L222 203z"/>
<path style="fill:#010001; stroke:none;" d="M221 204L222 205L221 204z"/>
<path style="fill:#000000; stroke:none;" d="M220 205L221 206L220 205z"/>
<path style="fill:#4b1a34; stroke:none;" d="M105 214L111 219L105 214z"/>
<path style="fill:#060104; stroke:none;" d="M209 215L210 216L209 215z"/>
<path style="fill:#030002; stroke:none;" d="M208 216L209 217L208 216z"/>
<path style="fill:#010001; stroke:none;" d="M207 217L208 218L207 217z"/>
<path style="fill:#000000; stroke:none;" d="M206 218L207 219L206 218z"/>
<path style="fill:#581e3d; stroke:none;" d="M116 224L125 232L116 224z"/>
<path style="fill:#060104; stroke:none;" d="M195 228L196 229L195 228z"/>
<path style="fill:#030002; stroke:none;" d="M194 229L195 230L194 229z"/>
<path style="fill:#010000; stroke:none;" d="M193 230L194 231L193 230z"/>
<path style="fill:#000000; stroke:none;" d="M192 231L193 232L192 231z"/>
<path style="fill:#511c38; stroke:none;" d="M130 237L137 243L130 237z"/>
<path style="fill:#060104; stroke:none;" d="M182 240L183 241L182 240z"/>
<path style="fill:#030002; stroke:none;" d="M181 241L182 242L181 241z"/>
<path style="fill:#010001; stroke:none;" d="M180 242L181 243L180 242z"/>
<path style="fill:#000000; stroke:none;" d="M179 243L180 244L179 243z"/>
<path style="fill:#060104; stroke:none;" d="M169 252L170 253L169 252z"/>
<path style="fill:#030002; stroke:none;" d="M168 253L169 254L168 253z"/>
<path style="fill:#010000; stroke:none;" d="M167 254L168 255L167 254z"/>
<path style="fill:#000000; stroke:none;" d="M163 257L164 258L163 257z"/>
<path style="fill:#341223; stroke:none;" d="M157 260L157 261L160 261L157 260z"/>
</svg>
