<?xml version="1.0" encoding="UTF-8"?>
<!DOCTYPE svg PUBLIC "-//W3C//DTD SVG 1.1//EN" "http://www.w3.org/Graphics/SVG/1.1/DTD/svg11.dtd">
<svg xmlns="http://www.w3.org/2000/svg" version="1.1" width="180px" height="180px" style="shape-rendering:geometricPrecision; text-rendering:geometricPrecision; image-rendering:optimizeQuality; fill-rule:evenodd; clip-rule:evenodd" xmlns:xlink="http://www.w3.org/1999/xlink">
<g><path style="opacity:0.995" fill="#24292f" d="M -0.5,-0.5 C 59.5,-0.5 119.5,-0.5 179.5,-0.5C 179.5,59.5 179.5,119.5 179.5,179.5C 119.5,179.5 59.5,179.5 -0.5,179.5C -0.5,119.5 -0.5,59.5 -0.5,-0.5 Z"/></g>
<g><path style="opacity:1" fill="#9c2b64" d="M 34.5,34.5 C 27.6457,34.176 20.979,34.5093 14.5,35.5C 13.9569,35.44 13.6236,35.1067 13.5,34.5C 20.656,33.1812 27.656,33.1812 34.5,34.5 Z"/></g>
<g><path style="opacity:1" fill="#cc2d7b" d="M 34.5,34.5 C 39.494,35.8285 44.1606,37.9952 48.5,41C 61.1014,51.8747 74.6014,61.3747 89,69.5C 102.725,62.0467 115.559,53.2133 127.5,43C 131.888,40.4765 136.222,37.9765 140.5,35.5C 148.648,34.2851 156.648,34.2851 164.5,35.5C 139.82,58.8463 114.82,81.8463 89.5,104.5C 63.5534,82.5545 38.5534,59.5545 14.5,35.5C 20.979,34.5093 27.6457,34.176 34.5,34.5 Z"/></g>
<g><path style="opacity:1" fill="#972c62" d="M 164.5,35.5 C 156.648,34.2851 148.648,34.2851 140.5,35.5C 140.918,34.7784 141.584,34.2784 142.5,34C 150.188,33.1685 157.855,33.3352 165.5,34.5C 165.376,35.1067 165.043,35.44 164.5,35.5 Z"/></g>
<g><path style="opacity:1" fill="#782a54" d="M 13.5,86.5 C 21.5852,86.0989 29.5852,86.5989 37.5,88C 40.48,89.6337 43.48,91.3004 46.5,93C 59.7722,104.211 73.9388,114.045 89,122.5C 102.725,115.047 115.559,106.213 127.5,96C 131.666,93.0825 135.999,90.4159 140.5,88C 148.776,86.2608 157.109,86.0942 165.5,87.5C 140.493,111.173 115.16,134.507 89.5,157.5C 85.6906,154.858 82.0239,152.025 78.5,149C 60.526,132.361 42.526,115.695 24.5,99C 20.1719,95.1875 16.5053,91.0208 13.5,86.5 Z"/></g>
</svg>
